#!OML:ASF E:\CV Data\Top Level 1\Subject 1\Session 1\player.ASF
:FULLY-SPECIFIED
:DEGREES
456
root 0.888825 16.4697 42.1028 -154.916 43.601 -154.344
lowerback 8.42433 -4.50712 2.00433
upperback -3.88791 -5.76054 0.12071
thorax -9.04056 -2.89468 -0.0579174
lowerneck 0.458757 -16.96 -19.8415
upperneck -33.9121 -17.8259 22.8588
head -5.95141 -7.48955 11.1772
rclavicle 8.05078e-015 -6.36111e-015
rhumerus -44.6384 -21.2384 -19.7117
rradius 78.5552
rwrist -17.1164
rhand 5.50857 7.56064
rfingers 7.12502
rthumb 30.8549 -19.8684
lclavicle 8.05078e-015 -6.36111e-015
lhumerus -47.0722 24.7783 11.031
lradius 96.3673
lwrist 13.328
lhand -38.6221 20.3357
lfingers 7.12502
lthumb -11.6392 49.9925
rfemur -10.6333 2.84846 29.108
rtibia 45.5645
rfoot -9.19145 -4.31377
rtoes -24.9432
lfemur -21.4048 7.60623 -2.48135
ltibia 55.1738
lfoot -22.4771 4.23635
ltoes -19.5816
457
root 0.861773 16.1071 42.3269 -155.894 42.506 -155.591
lowerback 8.76842 -4.88858 1.17869
upperback -3.77048 -6.34237 0.474102
thorax -8.99167 -3.11742 0.886644
lowerneck 0.525871 -16.5644 -19.2126
upperneck -34.5314 -17.1417 22.707
head -6.38964 -7.1641 11.205
rclavicle 4.20927e-014 0
rhumerus -44.9644 -22.1794 -21.7045
rradius 82.3142
rwrist -13.7768
rhand 1.994 10.0563
rfingers 7.12502
rthumb 27.4989 -17.9558
lclavicle 4.20927e-014 0
lhumerus -47.5096 27.0083 13.6631
lradius 99.3397
lwrist 12.904
lhand -39.505 20.1354
lfingers 7.12502
lthumb -12.4906 49.7421
rfemur -11.0917 1.98277 28.7718
rtibia 47.755
rfoot -16.0533 -4.07478
rtoes -28.5739
lfemur -22.9379 7.63052 -2.95657
ltibia 57.4421
lfoot -27.945 7.55675
ltoes -14.8159
458
root 0.834423 15.7861 42.5458 -156.696 41.3542 -156.753
lowerback 9.11952 -5.26236 0.375533
upperback -3.71479 -6.91833 0.784979
thorax -8.99939 -3.3401 1.7773
lowerneck 0.535916 -16.2077 -18.505
upperneck -35.1271 -16.4744 22.5857
head -6.81233 -6.85588 11.2135
rclavicle 7.11649e-014 -2.8625e-014
rhumerus -45.0036 -22.9481 -24.0491
rradius 85.8222
rwrist -10.8119
rhand -1.34286 12.0866
rfingers 7.12502
rthumb 24.3035 -16.3928
lclavicle 7.11649e-014 -2.8625e-014
lhumerus -47.361 29.0698 16.9732
lradius 102.021
lwrist 12.1654
lhand -40.3295 20.0319
lfingers 7.12502
lthumb -13.2854 49.5885
rfemur -11.9307 0.853511 28.5968
rtibia 49.9639
rfoot -21.9873 -4.52926
rtoes -29.6743
lfemur -25.0925 7.37871 -3.31928
ltibia 60.1289
lfoot -31.9063 10.0029
ltoes -11.2756
459
root 0.803678 15.4951 42.7595 -157.324 40.1858 -157.63
lowerback 9.50302 -5.58319 -0.221681
upperback -3.66042 -7.40533 1.04771
thorax -9.04205 -3.53241 2.49544
lowerneck 0.517277 -15.927 -17.86
upperneck -35.6592 -15.8762 22.6209
head -7.16671 -6.59296 11.2576
rclavicle 3.62037e-014 3.18055e-015
rhumerus -44.847 -23.5624 -26.7113
rradius 89.0509
rwrist -8.74185
rhand -4.39891 13.5946
rfingers 7.12502
rthumb 21.3709 -15.2469
lclavicle 3.62037e-014 3.18055e-015
lhumerus -46.4529 30.8351 21.1008
lradius 104.255
lwrist 11.1066
lhand -41.072 20.2144
lfingers 7.12502
lthumb -14.001 49.7229
rfemur -13.0129 -0.448666 28.736
rtibia 52.1858
rfoot -26.9025 -5.68159
rtoes -29.4921
lfemur -27.632 6.97248 -3.39547
ltibia 63.3009
lfoot -34.18 11.8862
ltoes -11.0876
460
root 0.768016 15.2272 42.9655 -157.83 39.0824 -158.067
lowerback 9.9801 -5.79938 -0.495301
upperback -3.54889 -7.71614 1.26312
thorax -9.1206 -3.65837 2.9688
lowerneck 0.476901 -15.7449 -17.3168
upperneck -36.1042 -15.3804 22.8473
head -7.43018 -6.39266 11.3531
rclavicle -3.39052e-014 -6.36111e-015
rhumerus -44.5627 -24.0312 -29.6343
rradius 91.9725
rwrist -7.83962
rhand -7.14573 14.6112
rfingers 7.12502
rthumb 18.7307 -14.507
lclavicle -3.39052e-014 -6.36111e-015
lhumerus -44.728 32.1419 26.0852
lradius 105.938
lwrist 9.81667
lhand -41.5548 20.7768
lfingers 7.12502
lthumb -14.4662 50.2525
rfemur -14.1024 -1.80647 29.2919
rtibia 54.379
rfoot -30.9456 -7.51577
rtoes -28.9026
lfemur -30.3036 6.54423 -3.05051
ltibia 66.8764
lfoot -34.7922 13.3547
ltoes -15.2897
461
root 0.726719 14.9785 43.1628 -158.326 38.1526 -158.064
lowerback 10.5916 -5.87585 -0.475506
upperback -3.33346 -7.80307 1.43293
thorax -9.21533 -3.69351 3.20883
lowerneck 0.444836 -15.6617 -16.9455
upperneck -36.4931 -14.9892 23.3016
head -7.60579 -6.25045 11.5336
rclavicle 4.36767e-014 1.27222e-014
rhumerus -44.1433 -24.3573 -32.7713
rradius 94.5742
rwrist -8.07853
rhand -9.64508 15.2557
rfingers 7.12502
rthumb 16.3254 -14.0772
lclavicle 4.36767e-014 1.27222e-014
lhumerus -42.3221 32.8541 31.8128
lradius 107.063
lwrist 8.51178
lhand -41.6206 21.7861
lfingers 7.12502
lthumb -14.5296 51.2573
rfemur -14.9645 -3.1013 30.2107
rtibia 56.4924
rfoot -34.2005 -9.855
rtoes -28.019
lfemur -32.8114 6.23812 -2.30697
ltibia 70.601
lfoot -34.1 14.6199
ltoes -23.4564
462
root 0.68154 14.7524 43.3444 -158.843 37.5888 -157.575
lowerback 11.3163 -5.77761 -0.151212
upperback -2.97657 -7.61016 1.5604
thorax -9.27923 -3.61212 3.19281
lowerneck 0.416634 -15.6554 -16.7282
upperneck -36.8653 -14.6766 23.9256
head -7.72205 -6.14553 11.7877
rclavicle 3.50109e-014 2.54444e-014
rhumerus -43.5328 -24.5216 -36.1041
rradius 96.867
rwrist -9.16079
rhand -11.957 15.7071
rfingers 7.12502
rthumb 14.0985 -13.7947
lclavicle 3.50109e-014 2.54444e-014
lhumerus -39.542 32.8973 37.9871
lradius 107.728
lwrist 7.47719
lhand -41.1406 23.1602
lfingers 7.12502
lthumb -14.0671 52.6641
rfemur -15.412 -4.13737 31.3969
rtibia 58.4125
rfoot -36.8235 -12.3611
rtoes -26.893
lfemur -34.7392 6.22983 -1.21618
ltibia 74.143
lfoot -32.7804 15.8393
ltoes -33.0013
463
root 0.63594 14.5578 43.5076 -159.455 37.5499 -156.882
lowerback 12.0563 -5.49702 0.227763
upperback -2.51462 -7.16417 1.60296
thorax -9.26262 -3.41489 2.99854
lowerneck 0.344608 -15.6976 -16.5777
upperneck -37.2293 -14.4147 24.5794
head -7.8081 -6.05567 12.0552
rclavicle -5.75482e-014 7.63333e-014
rhumerus -42.6826 -24.4613 -39.6015
rradius 98.8686
rwrist -10.6259
rhand -14.1535 16.1282
rfingers 7.12502
rthumb 11.9811 -13.5089
lclavicle -5.75482e-014 7.63333e-014
lhumerus -36.7182 32.2511 44.2587
lradius 108.067
lwrist 7.02477
lhand -40.0821 24.5699
lfingers 7.12502
lthumb -13.0469 54.1418
rfemur -15.4556 -4.77736 32.5161
rtibia 60.0637
rfoot -38.9351 -14.756
rtoes -25.5391
lfemur -35.9168 6.54933 -0.113508
ltibia 77.1998
lfoot -31.5446 16.9681
ltoes -41.0818
464
root 0.592474 14.4061 43.6505 -159.975 38.0474 -156.068
lowerback 12.6228 -5.07778 0.617175
upperback -2.04319 -6.53025 1.59656
thorax -9.14237 -3.12948 2.68134
lowerneck 0.206879 -15.7393 -16.4858
upperneck -37.5597 -14.1683 25.1385
head -7.87799 -5.95337 12.2897
rclavicle 9.21864e-014 -9.54166e-015
rhumerus -41.5209 -24.0297 -43.2144
rradius 100.591
rwrist -11.9968
rhand -16.2862 16.6297
rfingers 7.12502
rthumb 9.92407 -13.1163
lclavicle 9.21864e-014 -9.54166e-015
lhumerus -34.2115 30.9822 50.2808
lradius 108.245
lwrist 7.41561
lhand -38.812 25.6543
lfingers 7.12502
lthumb -11.8223 55.3006
rfemur -15.2794 -4.93592 33.4659
rtibia 61.4044
rfoot -40.5449 -16.785
rtoes -24.1436
lfemur -36.4016 7.19664 0.90519
ltibia 79.6518
lfoot -31.4409 17.0381
ltoes -45.3311
